# xmcd CD database file
#
# Track frame offsets:
#	150
#	18026
#	34514
#	52488
#	68927
#	85342
#	97638
#	118216
#	134166
#	149632
#	166652
#	188558
#	205683
#
# Disc length: 2957 seconds
#
# Revision: 1
# Processed by: cddbd v1.5.2PL0 Copyright (c) Steve Scherf et al.
# Submitted via: CDex 1.50
#
DISCID=b40b8b0d
DTITLE=Andrey Hermlin and His Swing Dance Orchestra - CHRISTMAS IN SWING
DYEAR=2002
DGENRE=Jazz
TTITLE0=WINTER WONDERLAND
TTITLE1=I'LL BE HOME FOR CHRISTMAS
TTITLE2=JINGLE BELLS
TTITLE3=LET IT SNOW! LET IT SNOW!
TTITLE4=MISTLETOE AND HOLLY
TTITLE5=SLEIGH RIDE
TTITLE6=WHITE CHRISTMAS
TTITLE7=RUDOLPH THE RED-NOSED REINDEER 
TTITLE8=HAVE YOURSELF A MERRY LITTLE CHRISTMAS
TTITLE9=I SAW MOMMY KISSING SANTA CLAUS
TTITLE10=THE CHRISTMAS SONG
TTITLE11=SANTA CLAUS IS COMING TO TOWN
TTITLE12=THE CHRISTMAS TIME I MISS
EXTD=YEAR: 2002
EXTT0=
EXTT1=
EXTT2=
EXTT3=
EXTT4=
EXTT5=
EXTT6=
EXTT7=
EXTT8=
EXTT9=
EXTT10=
EXTT11=
EXTT12=
PLAYORDER=
